<svg width="272" height="261" viewBox="0 0 272 261" fill="none" xmlns="http://www.w3.org/2000/svg">
<g filter="url(#filter0_d_307_2)">
<path d="M127.236 3.27244C132.768 0.575831 139.232 0.575834 144.764 3.27244L255.534 57.2725C262.408 60.6238 266.77 67.6021 266.77 75.25V177.75C266.77 185.398 262.408 192.376 255.534 195.728L144.764 249.728C139.232 252.424 132.768 252.424 127.236 249.728L16.4661 195.728C9.59161 192.376 5.23016 185.398 5.23016 177.75V75.25C5.23016 67.6021 9.59162 60.6238 16.4662 57.2725L127.236 3.27244Z" fill="#4F5A44"/>
<path d="M68 127.5L88 69L104 127.5L107.419 140L86.5 153.5L63.7265 140L68 127.5Z" fill="#4F5A44"/>
<path d="M156 68C162.566 68 169.068 69.0864 175.134 71.1971C181.2 73.3078 186.712 76.4015 191.355 80.3015C195.998 84.2016 199.681 88.8316 202.194 93.9273C204.707 99.023 206 104.484 206 110C206 115.516 204.707 120.977 202.194 126.073C199.681 131.168 195.998 135.798 191.355 139.699C186.712 143.599 181.2 146.692 175.134 148.803C169.068 150.914 162.566 152 156 152V68Z" fill="#4F5A44"/>
<path d="M102.5 67L136 186H120L107.419 140M68 127.5L88 69L104 127.5M68 127.5L86.5 140L104 127.5M68 127.5L63.7265 140M104 127.5L107.419 140M107.419 140L86.5 153.5L63.7265 140M63.7265 140L48 186M156 151V186M156.5 68.5L209.5 186H196L156 97M5.23016 75.25V177.75C5.23016 185.398 9.59161 192.376 16.4661 195.728L127.236 249.728C132.768 252.424 139.232 252.424 144.764 249.728L255.534 195.728C262.408 192.376 266.77 185.398 266.77 177.75V75.25C266.77 67.6021 262.408 60.6238 255.534 57.2725L144.764 3.27244C139.232 0.575834 132.768 0.575831 127.236 3.27244L16.4662 57.2725C9.59162 60.6238 5.23016 67.6021 5.23016 75.25ZM156 68C162.566 68 169.068 69.0864 175.134 71.1971C181.2 73.3078 186.712 76.4015 191.355 80.3015C195.998 84.2016 199.681 88.8316 202.194 93.9273C204.707 99.023 206 104.484 206 110C206 115.516 204.707 120.977 202.194 126.073C199.681 131.168 195.998 135.798 191.355 139.699C186.712 143.599 181.2 146.692 175.134 148.803C169.068 150.914 162.566 152 156 152V68Z" stroke="#FEFEFE" stroke-width="2"/>
</g>
<defs>
<filter id="filter0_d_307_2" x="0.230164" y="0.249985" width="271.54" height="260.5" filterUnits="userSpaceOnUse" color-interpolation-filters="sRGB">
<feFlood flood-opacity="0" result="BackgroundImageFix"/>
<feColorMatrix in="SourceAlpha" type="matrix" values="0 0 0 0 0 0 0 0 0 0 0 0 0 0 0 0 0 0 127 0" result="hardAlpha"/>
<feOffset dy="4"/>
<feGaussianBlur stdDeviation="2"/>
<feComposite in2="hardAlpha" operator="out"/>
<feColorMatrix type="matrix" values="0 0 0 0 0 0 0 0 0 0 0 0 0 0 0 0 0 0 0.25 0"/>
<feBlend mode="normal" in2="BackgroundImageFix" result="effect1_dropShadow_307_2"/>
<feBlend mode="normal" in="SourceGraphic" in2="effect1_dropShadow_307_2" result="shape"/>
</filter>
</defs>
</svg>
